<svg width="139" height="44" viewBox="0 0 139 44" fill="none" xmlns="http://www.w3.org/2000/svg">
<path d="M50.9912 13.3453C50.9912 12.7932 51.1024 12.2538 51.3249 11.7271C51.557 11.192 51.8907 10.7078 52.3259 10.2746C52.7612 9.83284 53.2931 9.48456 53.9218 9.22973C54.5505 8.96639 55.2662 8.83473 56.069 8.83473C57.0168 8.83473 57.8341 9.01736 58.5208 9.38263C59.2172 9.74789 59.7347 10.2236 60.0732 10.8097L58.5353 11.7399C58.3613 11.4001 58.134 11.1325 57.8535 10.9371C57.573 10.7333 57.2732 10.5931 56.954 10.5166C56.6348 10.4317 56.3205 10.3892 56.011 10.3892C55.508 10.3892 55.0679 10.4784 54.6907 10.6568C54.3232 10.8352 54.0137 11.0688 53.7622 11.3576C53.5108 11.6464 53.3222 11.9692 53.1964 12.326C53.0804 12.6828 53.0223 13.0395 53.0223 13.3963C53.0223 13.7955 53.0949 14.182 53.2399 14.5558C53.385 14.9211 53.5881 15.2481 53.8493 15.5369C54.1201 15.8173 54.4393 16.0424 54.8068 16.2122C55.184 16.3736 55.5951 16.4543 56.04 16.4543C56.3592 16.4543 56.6832 16.4076 57.012 16.3142C57.3409 16.2207 57.6455 16.0721 57.926 15.8682C58.2065 15.6643 58.4241 15.401 58.5789 15.0782L60.2183 15.9064C60.0152 16.3567 59.6815 16.7389 59.2172 17.0532C58.7626 17.3675 58.25 17.6054 57.6794 17.7668C57.1087 17.9281 56.5429 18.0088 55.9819 18.0088C55.2469 18.0088 54.5747 17.8772 53.9653 17.6138C53.356 17.342 52.8289 16.9853 52.384 16.5435C51.9487 16.0933 51.6054 15.5921 51.3539 15.04C51.1121 14.4794 50.9912 13.9145 50.9912 13.3453Z" fill="#E9EAEB"/>
<path d="M65.0725 18.0598C64.4535 18.0598 63.8974 17.9706 63.4041 17.7922C62.9109 17.6054 62.4901 17.3505 62.1419 17.0277C61.8034 16.7049 61.5423 16.3354 61.3585 15.9192C61.1747 15.503 61.0829 15.0655 61.0829 14.6068C61.0829 14.1396 61.1747 13.6979 61.3585 13.2816C61.5423 12.8654 61.8034 12.4959 62.1419 12.1731C62.4901 11.8503 62.9109 11.5997 63.4041 11.4213C63.8974 11.2344 64.4535 11.141 65.0725 11.141C65.6915 11.141 66.2428 11.2344 66.7264 11.4213C67.2197 11.5997 67.6404 11.8503 67.9886 12.1731C68.3368 12.4959 68.598 12.8654 68.7721 13.2816C68.9558 13.6979 69.0477 14.1396 69.0477 14.6068C69.0477 15.0655 68.9558 15.503 68.7721 15.9192C68.598 16.3354 68.3368 16.7049 67.9886 17.0277C67.6501 17.3505 67.2342 17.6054 66.741 17.7922C66.2477 17.9706 65.6915 18.0598 65.0725 18.0598ZM63.085 14.6068C63.085 14.9975 63.172 15.3458 63.3461 15.6516C63.5202 15.9489 63.7572 16.1825 64.057 16.3524C64.3568 16.5223 64.6953 16.6072 65.0725 16.6072C65.4401 16.6072 65.7738 16.5223 66.0736 16.3524C66.3734 16.174 66.6104 15.9362 66.7845 15.6389C66.9682 15.3331 67.0601 14.9848 67.0601 14.594C67.0601 14.2118 66.9682 13.8678 66.7845 13.5619C66.6104 13.2561 66.3734 13.0183 66.0736 12.8484C65.7738 12.6785 65.4401 12.5936 65.0725 12.5936C64.6953 12.5936 64.3568 12.6828 64.057 12.8611C63.7572 13.031 63.5202 13.2689 63.3461 13.5747C63.172 13.872 63.085 14.216 63.085 14.6068Z" fill="#E9EAEB"/>
<path d="M70.1133 14.594C70.1133 13.9484 70.2583 13.3666 70.5485 12.8484C70.8387 12.3217 71.24 11.9055 71.7527 11.5997C72.2653 11.2939 72.8504 11.141 73.5081 11.141C74.0691 11.141 74.572 11.2642 75.017 11.5105C75.4715 11.7484 75.8246 12.0542 76.076 12.4279V8.63086H78.0201V16.0211C78.0201 16.1995 78.0539 16.3269 78.1217 16.4034C78.1894 16.4798 78.3054 16.5265 78.4698 16.5435V17.9324C78.1313 17.9919 77.8557 18.0216 77.6429 18.0216C77.2947 18.0216 77.0045 17.9451 76.7724 17.7922C76.55 17.6393 76.4242 17.4397 76.3952 17.1934L76.3662 16.7729C76.0857 17.1891 75.7037 17.5077 75.2201 17.7285C74.7461 17.9494 74.248 18.0598 73.7257 18.0598C73.2035 18.0598 72.7199 17.9706 72.2749 17.7922C71.8397 17.6138 71.4577 17.3675 71.1288 17.0532C70.8096 16.7389 70.5582 16.3736 70.3744 15.9574C70.2003 15.5327 70.1133 15.0782 70.1133 14.594ZM76.076 15.486V13.8932C75.9793 13.6469 75.8246 13.426 75.6118 13.2307C75.399 13.0353 75.162 12.8824 74.9009 12.772C74.6397 12.653 74.3786 12.5936 74.1175 12.5936C73.8176 12.5936 73.5468 12.6488 73.305 12.7592C73.0632 12.8696 72.8504 13.0183 72.6667 13.2052C72.4926 13.3921 72.3572 13.6087 72.2604 13.855C72.1734 14.1014 72.1299 14.3604 72.1299 14.6323C72.1299 14.9041 72.1782 15.1632 72.2749 15.4095C72.3813 15.6474 72.5313 15.8555 72.7247 16.0339C72.9181 16.2122 73.1406 16.3524 73.3921 16.4543C73.6532 16.5563 73.9337 16.6072 74.2335 16.6072C74.4173 16.6072 74.6011 16.5818 74.7848 16.5308C74.9783 16.4713 75.1572 16.3949 75.3216 16.3014C75.4957 16.1995 75.6456 16.0806 75.7714 15.9447C75.9068 15.8003 76.0083 15.6474 76.076 15.486Z" fill="#E9EAEB"/>
<path d="M80.146 17.9324V11.2557H82.09V17.9324H80.146ZM80.146 10.3255V8.63086H82.09V10.3255H80.146Z" fill="#E9EAEB"/>
<path d="M91.1268 17.9324H89.1827V14.1863C89.1827 13.6511 89.0763 13.2604 88.8635 13.014C88.6508 12.7677 88.3558 12.6445 87.9786 12.6445C87.7174 12.6445 87.4514 12.704 87.1806 12.8229C86.9195 12.9418 86.6825 13.1075 86.4697 13.3199C86.257 13.5237 86.1022 13.7616 86.0055 14.0334V17.9324H84.0614V11.2557H85.8169V12.4916C86.0103 12.2028 86.257 11.9607 86.5568 11.7653C86.8566 11.5615 87.2 11.4086 87.5868 11.3066C87.9834 11.1962 88.3993 11.141 88.8345 11.141C89.3085 11.141 89.6953 11.2174 89.9952 11.3704C90.3047 11.5148 90.5368 11.7144 90.6915 11.9692C90.856 12.2156 90.9672 12.4959 91.0252 12.8102C91.0929 13.1245 91.1268 13.443 91.1268 13.7658V17.9324Z" fill="#E9EAEB"/>
<path d="M96.0089 17.9706C95.506 17.9706 95.0417 17.8857 94.6162 17.7158C94.2003 17.5374 93.8376 17.2911 93.5281 16.9768C93.2282 16.6625 92.9961 16.3014 92.8317 15.8937C92.6673 15.486 92.5851 15.0527 92.5851 14.594C92.5851 14.1098 92.6721 13.6596 92.8462 13.2434C93.0203 12.8272 93.2621 12.4619 93.5716 12.1476C93.8908 11.8248 94.2631 11.5785 94.6887 11.4086C95.124 11.2302 95.6027 11.141 96.125 11.141C96.715 11.141 97.2324 11.2599 97.6774 11.4978C98.1223 11.7271 98.4898 12.0372 98.78 12.4279V11.2557H100.477V17.6138C100.477 18.2764 100.294 18.8413 99.9261 19.3085C99.5682 19.7842 99.0701 20.1452 98.4318 20.3916C97.7934 20.6464 97.068 20.7738 96.2556 20.7738C95.4335 20.7738 94.7371 20.6507 94.1664 20.4043C93.5958 20.1665 93.1073 19.8267 92.7011 19.385L93.7602 18.4803C94.0504 18.7946 94.4131 19.0409 94.8483 19.2193C95.2932 19.3977 95.7623 19.4869 96.2556 19.4869C96.6715 19.4869 97.0487 19.4189 97.3872 19.283C97.7354 19.1556 98.011 18.9517 98.2141 18.6714C98.4269 18.3996 98.5333 18.0471 98.5333 17.6138V16.7729C98.2819 17.1551 97.924 17.4525 97.4597 17.6648C97.0051 17.8687 96.5216 17.9706 96.0089 17.9706ZM96.6618 16.6072C96.8746 16.6072 97.0777 16.5775 97.2711 16.5181C97.4646 16.4586 97.6435 16.3779 97.8079 16.276C97.9723 16.174 98.1174 16.0551 98.2432 15.9192C98.3689 15.7748 98.4656 15.6304 98.5333 15.486V13.8932C98.4173 13.6299 98.2528 13.4006 98.0401 13.2052C97.8369 13.0098 97.6048 12.8611 97.3437 12.7592C97.0922 12.6488 96.8262 12.5936 96.5457 12.5936C96.2459 12.5936 95.9751 12.6488 95.7333 12.7592C95.4915 12.8696 95.2835 13.0268 95.1094 13.2307C94.9354 13.426 94.7999 13.6469 94.7032 13.8932C94.6162 14.1311 94.5727 14.3817 94.5727 14.645C94.5727 14.9168 94.6259 15.1717 94.7322 15.4095C94.8386 15.6474 94.9837 15.8555 95.1675 16.0339C95.3609 16.2122 95.5834 16.3524 95.8348 16.4543C96.096 16.5563 96.3716 16.6072 96.6618 16.6072Z" fill="#E9EAEB"/>
<path d="M105.715 13.3453C105.715 12.7932 105.826 12.2538 106.049 11.7271C106.281 11.192 106.615 10.7078 107.05 10.2746C107.485 9.83284 108.017 9.48456 108.646 9.22973C109.274 8.96639 109.99 8.83473 110.793 8.83473C111.741 8.83473 112.558 9.01736 113.245 9.38263C113.941 9.74789 114.459 10.2236 114.797 10.8097L113.259 11.7399C113.085 11.4001 112.858 11.1325 112.577 10.9371C112.297 10.7333 111.997 10.5931 111.678 10.5166C111.359 10.4317 111.044 10.3892 110.735 10.3892C110.232 10.3892 109.792 10.4784 109.415 10.6568C109.047 10.8352 108.738 11.0688 108.486 11.3576C108.235 11.6464 108.046 11.9692 107.92 12.326C107.804 12.6828 107.746 13.0395 107.746 13.3963C107.746 13.7955 107.819 14.182 107.964 14.5558C108.109 14.9211 108.312 15.2481 108.573 15.5369C108.844 15.8173 109.163 16.0424 109.531 16.2122C109.908 16.3736 110.319 16.4543 110.764 16.4543C111.083 16.4543 111.407 16.4076 111.736 16.3142C112.065 16.2207 112.369 16.0721 112.65 15.8682C112.93 15.6643 113.148 15.401 113.303 15.0782L114.942 15.9064C114.739 16.3567 114.405 16.7389 113.941 17.0532C113.487 17.3675 112.974 17.6054 112.403 17.7668C111.833 17.9281 111.267 18.0088 110.706 18.0088C109.971 18.0088 109.299 17.8772 108.689 17.6138C108.08 17.342 107.553 16.9853 107.108 16.5435C106.673 16.0933 106.329 15.5921 106.078 15.04C105.836 14.4794 105.715 13.9145 105.715 13.3453Z" fill="#E9EAEB"/>
<path d="M116.299 8.63086H118.243V15.7918C118.243 16.0976 118.301 16.3057 118.417 16.4161C118.534 16.5181 118.693 16.569 118.896 16.569C119.051 16.569 119.211 16.552 119.375 16.5181C119.539 16.4841 119.685 16.4416 119.81 16.3906L120.071 17.6903C119.81 17.8007 119.506 17.8857 119.157 17.9451C118.809 18.0046 118.495 18.0343 118.214 18.0343C117.605 18.0343 117.131 17.8942 116.793 17.6138C116.464 17.325 116.299 16.9173 116.299 16.3906V8.63086Z" fill="#E9EAEB"/>
<path d="M121.063 15.435V11.2557H123.008V15.0655C123.008 15.5752 123.114 15.9617 123.327 16.225C123.54 16.4798 123.854 16.6072 124.27 16.6072C124.521 16.6072 124.768 16.5648 125.01 16.4798C125.261 16.3864 125.488 16.2505 125.692 16.0721C125.904 15.8937 126.083 15.6686 126.228 15.3968V11.2557H128.172V16.0211C128.172 16.1995 128.206 16.3269 128.274 16.4034C128.351 16.4798 128.472 16.5265 128.637 16.5435V17.9324C128.443 17.9579 128.279 17.9749 128.143 17.9834C128.018 18.0003 127.902 18.0088 127.795 18.0088C127.447 18.0088 127.162 17.9409 126.939 17.805C126.726 17.6606 126.601 17.4652 126.562 17.2189L126.518 16.6837C126.18 17.1339 125.745 17.4779 125.213 17.7158C124.681 17.9451 124.096 18.0598 123.457 18.0598C122.674 18.0598 122.079 17.839 121.673 17.3972C121.267 16.947 121.063 16.2929 121.063 15.435Z" fill="#E9EAEB"/>
<path d="M134.645 18.0598C134.065 18.0598 133.548 17.9451 133.093 17.7158C132.638 17.4864 132.281 17.1721 132.019 16.7729V17.9324H130.322V8.63086H132.266V12.4279C132.537 12.0287 132.89 11.7144 133.325 11.485C133.77 11.2557 134.287 11.141 134.877 11.141C135.371 11.141 135.82 11.2344 136.227 11.4213C136.633 11.5997 136.981 11.8503 137.271 12.1731C137.571 12.4959 137.798 12.8654 137.953 13.2816C138.118 13.6979 138.2 14.1438 138.2 14.6195C138.2 15.0952 138.108 15.5412 137.924 15.9574C137.75 16.3736 137.503 16.7432 137.184 17.0659C136.865 17.3802 136.488 17.6266 136.053 17.805C135.627 17.9749 135.158 18.0598 134.645 18.0598ZM134.109 16.6072C134.418 16.6072 134.699 16.5563 134.95 16.4543C135.211 16.3439 135.434 16.1995 135.617 16.0211C135.811 15.8427 135.956 15.6346 136.053 15.3968C136.159 15.1504 136.212 14.8956 136.212 14.6323C136.212 14.267 136.125 13.9315 135.951 13.6257C135.787 13.3114 135.554 13.0608 135.255 12.8739C134.965 12.687 134.621 12.5936 134.225 12.5936C133.944 12.5936 133.673 12.653 133.412 12.772C133.161 12.8824 132.933 13.0353 132.73 13.2307C132.537 13.426 132.382 13.6469 132.266 13.8932V15.486C132.324 15.6559 132.416 15.8088 132.542 15.9447C132.677 16.0806 132.832 16.1995 133.006 16.3014C133.18 16.3949 133.359 16.4713 133.543 16.5308C133.736 16.5818 133.925 16.6072 134.109 16.6072Z" fill="#E9EAEB"/>
<path d="M52.0957 36.0793V25.4878H53.3734V36.0793H52.0957Z" fill="#E9EAEB"/>
<path d="M55.7836 36.0793V25.4878H57.0614V36.0793H55.7836Z" fill="#E9EAEB"/>
<path d="M66.7405 26.6812H63.2622V36.0793H61.9844V26.6812H58.5061V25.4878H66.7405V26.6812Z" fill="#E9EAEB"/>
<path d="M75.3995 36.1539C74.7369 36.1539 74.117 36.0047 73.5396 35.7064C72.9718 35.3981 72.4749 34.9903 72.0489 34.4831C71.623 33.966 71.2918 33.3892 71.0551 32.7527C70.8185 32.1063 70.7002 31.4399 70.7002 30.7537C70.7002 30.0377 70.8185 29.3614 71.0551 28.7249C71.2918 28.0785 71.6183 27.5067 72.0347 27.0094C72.4607 26.5122 72.9576 26.1243 73.5254 25.8458C74.1028 25.5574 74.7275 25.4132 75.3995 25.4132C76.3743 25.4132 77.1788 25.627 77.813 26.0547C78.4471 26.4823 78.9251 27.0392 79.2469 27.7255L78.2673 28.4415C77.9739 27.8249 77.5716 27.3674 77.0605 27.0691C76.5494 26.7707 75.9863 26.6215 75.3711 26.6215C74.86 26.6215 74.3962 26.7359 73.9798 26.9647C73.5633 27.1934 73.2036 27.5067 72.9008 27.9045C72.6074 28.2923 72.3802 28.7349 72.2193 29.2321C72.0679 29.7294 71.9922 30.2465 71.9922 30.7836C71.9922 31.3504 72.0773 31.8875 72.2477 32.3947C72.4275 32.8919 72.6784 33.3345 73.0002 33.7223C73.322 34.1003 73.6958 34.3986 74.1217 34.6174C74.5476 34.8362 75.0067 34.9456 75.4988 34.9456C76.0762 34.9456 76.6251 34.7914 77.1457 34.4831C77.6663 34.1748 78.1584 33.7025 78.6222 33.066V34.4533C77.7136 35.5871 76.6393 36.1539 75.3995 36.1539ZM78.466 31.8129H76.2939V30.7985H79.545V36.0793H78.466V31.8129Z" fill="#E9EAEB"/>
<path d="M81.2184 32.9615V28.2923H82.4677V32.7079C82.4677 33.5036 82.6002 34.1003 82.8652 34.4981C83.1303 34.8959 83.523 35.0948 84.0436 35.0948C84.3843 35.0948 84.7109 35.0202 85.0232 34.871C85.345 34.7119 85.6337 34.4881 85.8892 34.1997C86.1448 33.9113 86.3435 33.5682 86.4855 33.1704V28.2923H87.7349V34.5876C87.7349 34.7467 87.7632 34.866 87.82 34.9456C87.8863 35.0152 87.9904 35.055 88.1324 35.0649V36.0793C87.9904 36.0992 87.8768 36.1092 87.7916 36.1092C87.7159 36.1191 87.6402 36.1241 87.5645 36.1241C87.3279 36.1241 87.1244 36.0495 86.954 35.9003C86.7836 35.7412 86.6937 35.5473 86.6843 35.3185L86.6559 34.4086C86.3341 34.9854 85.8987 35.4329 85.3497 35.7511C84.8102 36.0694 84.2187 36.2285 83.5751 36.2285C82.799 36.2285 82.2122 35.955 81.8147 35.408C81.4171 34.8511 81.2184 34.0356 81.2184 32.9615Z" fill="#E9EAEB"/>
<path d="M99.1008 28.2923H100.308L97.1558 36.0793H96.0627L94.6288 32.4096L93.2091 36.0793H92.1159L88.9641 28.2923H90.1567L92.7122 34.7815L93.9047 31.5891L92.6554 28.3072H93.7485L94.6288 30.7836L95.509 28.3072H96.6022L95.367 31.5891L96.5596 34.7815L99.1008 28.2923Z" fill="#E9EAEB"/>
<path d="M100.714 33.8268C100.714 33.3295 100.846 32.9019 101.111 32.5439C101.386 32.1759 101.759 31.8924 102.233 31.6935C102.706 31.4946 103.255 31.3952 103.88 31.3952C104.211 31.3952 104.561 31.425 104.93 31.4847C105.299 31.5344 105.626 31.614 105.91 31.7234V31.1565C105.91 30.5598 105.739 30.0924 105.399 29.7543C105.058 29.4062 104.575 29.2321 103.95 29.2321C103.544 29.2321 103.151 29.3117 102.772 29.4708C102.403 29.62 102.01 29.8388 101.594 30.1272L101.139 29.2023C101.622 28.8542 102.105 28.5956 102.588 28.4266C103.07 28.2476 103.572 28.1581 104.092 28.1581C105.039 28.1581 105.787 28.4365 106.336 28.9935C106.885 29.5404 107.159 30.3062 107.159 31.2908V34.5876C107.159 34.7467 107.187 34.866 107.244 34.9456C107.31 35.0152 107.415 35.055 107.557 35.0649V36.0793C107.434 36.0992 107.325 36.1141 107.23 36.1241C107.145 36.134 107.074 36.139 107.017 36.139C106.724 36.139 106.501 36.0545 106.35 35.8854C106.208 35.7163 106.127 35.5373 106.108 35.3484L106.08 34.8561C105.758 35.2937 105.337 35.6318 104.817 35.8705C104.296 36.1092 103.78 36.2285 103.269 36.2285C102.777 36.2285 102.337 36.1241 101.949 35.9152C101.561 35.6964 101.258 35.408 101.04 35.05C100.822 34.682 100.714 34.2743 100.714 33.8268ZM105.541 34.3787C105.654 34.2395 105.744 34.1003 105.81 33.961C105.877 33.8119 105.91 33.6875 105.91 33.5881V32.6184C105.616 32.4991 105.309 32.4096 104.987 32.3499C104.665 32.2803 104.348 32.2455 104.036 32.2455C103.402 32.2455 102.886 32.3798 102.488 32.6483C102.1 32.9068 101.906 33.2649 101.906 33.7223C101.906 33.971 101.968 34.2146 102.091 34.4533C102.223 34.682 102.412 34.871 102.659 35.0202C102.914 35.1694 103.226 35.2439 103.596 35.2439C103.984 35.2439 104.353 35.1644 104.703 35.0053C105.053 34.8362 105.332 34.6273 105.541 34.3787Z" fill="#E9EAEB"/>
<path d="M115.588 36.0793H114.339V31.7234C114.339 30.9278 114.201 30.3311 113.927 29.9333C113.662 29.5355 113.279 29.3366 112.777 29.3366C112.455 29.3366 112.129 29.4261 111.797 29.6051C111.476 29.7841 111.192 30.0277 110.946 30.336C110.699 30.6344 110.52 30.9825 110.406 31.3803V36.0793H109.157V25.1895H110.406V29.9631C110.699 29.4062 111.097 28.9686 111.599 28.6503C112.11 28.3222 112.659 28.1581 113.245 28.1581C113.69 28.1581 114.059 28.2426 114.353 28.4117C114.656 28.5708 114.897 28.7995 115.077 29.0979C115.257 29.3962 115.385 29.7443 115.46 30.1421C115.545 30.53 115.588 30.9576 115.588 31.425V36.0793Z" fill="#E9EAEB"/>
<path d="M116.949 33.8268C116.949 33.3295 117.081 32.9019 117.346 32.5439C117.621 32.1759 117.995 31.8924 118.468 31.6935C118.941 31.4946 119.49 31.3952 120.115 31.3952C120.446 31.3952 120.796 31.425 121.165 31.4847C121.534 31.5344 121.861 31.614 122.145 31.7234V31.1565C122.145 30.5598 121.974 30.0924 121.634 29.7543C121.293 29.4062 120.81 29.2321 120.186 29.2321C119.779 29.2321 119.386 29.3117 119.007 29.4708C118.638 29.62 118.245 29.8388 117.829 30.1272L117.375 29.2023C117.857 28.8542 118.34 28.5956 118.823 28.4266C119.305 28.2476 119.807 28.1581 120.328 28.1581C121.274 28.1581 122.022 28.4365 122.571 28.9935C123.12 29.5404 123.394 30.3062 123.394 31.2908V34.5876C123.394 34.7467 123.423 34.866 123.479 34.9456C123.546 35.0152 123.65 35.055 123.792 35.0649V36.0793C123.669 36.0992 123.56 36.1141 123.465 36.1241C123.38 36.134 123.309 36.139 123.252 36.139C122.959 36.139 122.736 36.0545 122.585 35.8854C122.443 35.7163 122.363 35.5373 122.344 35.3484L122.315 34.8561C121.993 35.2937 121.572 35.6318 121.052 35.8705C120.531 36.1092 120.015 36.2285 119.504 36.2285C119.012 36.2285 118.572 36.1241 118.184 35.9152C117.796 35.6964 117.493 35.408 117.275 35.05C117.058 34.682 116.949 34.2743 116.949 33.8268ZM121.776 34.3787C121.889 34.2395 121.979 34.1003 122.045 33.961C122.112 33.8119 122.145 33.6875 122.145 33.5881V32.6184C121.851 32.4991 121.544 32.4096 121.222 32.3499C120.9 32.2803 120.583 32.2455 120.271 32.2455C119.637 32.2455 119.121 32.3798 118.723 32.6483C118.335 32.9068 118.141 33.2649 118.141 33.7223C118.141 33.971 118.203 34.2146 118.326 34.4533C118.458 34.682 118.648 34.871 118.894 35.0202C119.149 35.1694 119.462 35.2439 119.831 35.2439C120.219 35.2439 120.588 35.1644 120.938 35.0053C121.288 34.8362 121.567 34.6273 121.776 34.3787Z" fill="#E9EAEB"/>
<path d="M129.17 35.6915C129.066 35.7412 128.924 35.8058 128.744 35.8854C128.564 35.965 128.356 36.0346 128.119 36.0943C127.882 36.1539 127.632 36.1838 127.367 36.1838C127.064 36.1838 126.785 36.1291 126.529 36.0197C126.273 35.9003 126.07 35.7213 125.919 35.4826C125.767 35.234 125.691 34.9257 125.691 34.5577V29.3216H124.683V28.2923H125.691V25.6967H126.941V28.2923H128.602V29.3216H126.941V34.155C126.96 34.4334 127.05 34.6423 127.21 34.7815C127.371 34.9108 127.561 34.9754 127.778 34.9754C128.024 34.9754 128.252 34.9307 128.46 34.8412C128.668 34.7517 128.805 34.687 128.871 34.6472L129.17 35.6915Z" fill="#E9EAEB"/>
<path d="M130.328 36.0793V28.2923H131.577V36.0793H130.328ZM130.328 26.8304V25.1895H131.577V26.8304H130.328Z" fill="#E9EAEB"/>
<path d="M13.5658 22.9824L33.3291 9.83762L33.3169 0.904306L0.211914 22.9144" fill="#F3B257"/>
<path d="M33.3291 22.5246L0.260678 0.904213L0.248488 9.67927L19.9899 22.5914L0.211914 35.1743V43.9565L33.3291 22.5246Z" fill="#E9EAEB"/>
<path d="M0.211914 22.9823L33.3291 43.9565V35.3619L13.5511 23.0477" fill="#F3B257"/>
</svg>
