<svg width="32" height="32" viewBox="0 0 32 32" fill="none" xmlns="http://www.w3.org/2000/svg">
<rect width="32" height="32" rx="6" fill="#F6F7F7"/>
<g clip-path="url(#clip0_1788_16905)">
<path d="M16 19.2008C17.7674 19.2008 19.2 17.7681 19.2 16.0008C19.2 14.2335 17.7674 12.8008 16 12.8008C14.2327 12.8008 12.8 14.2335 12.8 16.0008C12.8 17.7681 14.2327 19.2008 16 19.2008Z" fill="#333333"/>
<path d="M13 6L11.17 8H8C6.9 8 6 8.9 6 10V22C6 23.1 6.9 24 8 24H24C25.1 24 26 23.1 26 22V10C26 8.9 25.1 8 24 8H20.83L19 6H13ZM16 21C13.24 21 11 18.76 11 16C11 13.24 13.24 11 16 11C18.76 11 21 13.24 21 16C21 18.76 18.76 21 16 21Z" fill="#333333"/>
</g>
<defs>
<clipPath id="clip0_1788_16905">
<rect width="24" height="24" fill="white" transform="translate(4 4)"/>
</clipPath>
</defs>
</svg>
