<svg width="412" height="241" viewBox="0 0 412 241" fill="none" xmlns="http://www.w3.org/2000/svg">
<g clip-path="url(#clip0_1788_16935)">
<rect width="411.714" height="240.167" rx="8" fill="white"/>
<rect width="411.714" height="240.167" fill="url(#paint0_linear_1788_16935)"/>
<mask id="mask0_1788_16935" style="mask-type:alpha" maskUnits="userSpaceOnUse" x="0" y="0" width="412" height="241">
<rect width="411.714" height="240.167" fill="#1E1E1E"/>
</mask>
<g mask="url(#mask0_1788_16935)">
<path d="M0 0H397.562L174.335 240.167H0V0Z" fill="url(#paint1_linear_1788_16935)"/>
<path d="M411.714 240.166L14.1527 240.166L237.379 -0.000671369L411.714 -0.000656128L411.714 240.166Z" fill="url(#paint2_linear_1788_16935)"/>
</g>
<path d="M30.8237 65.4531V62.3125C29.4383 62.2812 28.1987 62.151 27.105 61.9219C26.0216 61.6823 25.0321 61.3646 24.1362 60.9688V56.8438C25.0216 57.2708 26.0789 57.6615 27.3081 58.0156C28.5373 58.3594 29.7091 58.5677 30.8237 58.6406V53.7969C29.1779 53.151 27.8602 52.526 26.8706 51.9219C25.8914 51.3073 25.1831 50.6302 24.7456 49.8906C24.3185 49.1406 24.105 48.2448 24.105 47.2031C24.105 46.1406 24.3862 45.224 24.9487 44.4531C25.5216 43.6719 26.3133 43.0469 27.3237 42.5781C28.3341 42.1094 29.5008 41.8177 30.8237 41.7031V39.3125H32.9644V41.6406C34.1727 41.6823 35.2977 41.8229 36.3394 42.0625C37.3914 42.2917 38.4227 42.6302 39.4331 43.0781L37.9644 46.7344C37.1102 46.3802 36.2508 46.1042 35.3862 45.9062C34.5321 45.7083 33.7248 45.5781 32.9644 45.5156V50.125C34.1206 50.5521 35.2196 51.0156 36.2612 51.5156C37.3029 52.0156 38.1519 52.651 38.8081 53.4219C39.4644 54.1927 39.7925 55.2031 39.7925 56.4531C39.7925 58.0052 39.2248 59.3073 38.0894 60.3594C36.9644 61.4115 35.256 62.0417 32.9644 62.25V65.4531H30.8237ZM32.9644 58.5312C33.6935 58.4062 34.23 58.1927 34.5737 57.8906C34.9175 57.5781 35.0894 57.1771 35.0894 56.6875C35.0894 56.3958 35.0112 56.1354 34.855 55.9062C34.6987 55.6771 34.4591 55.4635 34.1362 55.2656C33.8237 55.0573 33.4331 54.849 32.9644 54.6406V58.5312ZM30.8237 49.25V45.5781C30.3966 45.6406 30.0321 45.7448 29.73 45.8906C29.4279 46.026 29.1987 46.2031 29.0425 46.4219C28.8862 46.6406 28.8081 46.901 28.8081 47.2031C28.8081 47.5052 28.8758 47.7708 29.0112 48C29.1571 48.2292 29.3758 48.4427 29.6675 48.6406C29.9696 48.8385 30.355 49.0417 30.8237 49.25ZM66.48 52.1719C66.48 54.0156 66.3341 55.6615 66.0425 57.1094C65.7612 58.5573 65.3029 59.7865 64.6675 60.7969C64.0425 61.8073 63.2196 62.5781 62.1987 63.1094C61.1779 63.6406 59.9383 63.9062 58.48 63.9062C56.6466 63.9062 55.1414 63.4427 53.9644 62.5156C52.7873 61.5781 51.9175 60.2344 51.355 58.4844C50.7925 56.724 50.5112 54.6198 50.5112 52.1719C50.5112 49.7031 50.7664 47.5938 51.2769 45.8438C51.7977 44.0833 52.6414 42.7344 53.8081 41.7969C54.9748 40.8594 56.5321 40.3906 58.48 40.3906C60.3029 40.3906 61.8029 40.8594 62.98 41.7969C64.1675 42.724 65.0477 44.0677 65.6206 45.8281C66.1935 47.5781 66.48 49.6927 66.48 52.1719ZM55.3081 52.1719C55.3081 53.9115 55.4019 55.3646 55.5894 56.5312C55.7873 57.6875 56.1154 58.5573 56.5737 59.1406C57.0321 59.724 57.6675 60.0156 58.48 60.0156C59.2821 60.0156 59.9123 59.7292 60.3706 59.1562C60.8394 58.5729 61.1727 57.7031 61.3706 56.5469C61.5685 55.3802 61.6675 53.9219 61.6675 52.1719C61.6675 50.4323 61.5685 48.9792 61.3706 47.8125C61.1727 46.6458 60.8394 45.7708 60.3706 45.1875C59.9123 44.5938 59.2821 44.2969 58.48 44.2969C57.6675 44.2969 57.0321 44.5938 56.5737 45.1875C56.1154 45.7708 55.7873 46.6458 55.5894 47.8125C55.4019 48.9792 55.3081 50.4323 55.3081 52.1719ZM84.7925 52.1719C84.7925 54.0156 84.6466 55.6615 84.355 57.1094C84.0737 58.5573 83.6154 59.7865 82.98 60.7969C82.355 61.8073 81.5321 62.5781 80.5112 63.1094C79.4904 63.6406 78.2508 63.9062 76.7925 63.9062C74.9591 63.9062 73.4539 63.4427 72.2769 62.5156C71.0998 61.5781 70.23 60.2344 69.6675 58.4844C69.105 56.724 68.8237 54.6198 68.8237 52.1719C68.8237 49.7031 69.0789 47.5938 69.5894 45.8438C70.1102 44.0833 70.9539 42.7344 72.1206 41.7969C73.2873 40.8594 74.8446 40.3906 76.7925 40.3906C78.6154 40.3906 80.1154 40.8594 81.2925 41.7969C82.48 42.724 83.3602 44.0677 83.9331 45.8281C84.506 47.5781 84.7925 49.6927 84.7925 52.1719ZM73.6206 52.1719C73.6206 53.9115 73.7144 55.3646 73.9019 56.5312C74.0998 57.6875 74.4279 58.5573 74.8862 59.1406C75.3446 59.724 75.98 60.0156 76.7925 60.0156C77.5946 60.0156 78.2248 59.7292 78.6831 59.1562C79.1519 58.5729 79.4852 57.7031 79.6831 56.5469C79.881 55.3802 79.98 53.9219 79.98 52.1719C79.98 50.4323 79.881 48.9792 79.6831 47.8125C79.4852 46.6458 79.1519 45.7708 78.6831 45.1875C78.2248 44.5938 77.5946 44.2969 76.7925 44.2969C75.98 44.2969 75.3446 44.5938 74.8862 45.1875C74.4279 45.7708 74.0998 46.6458 73.9019 47.8125C73.7144 48.9792 73.6206 50.4323 73.6206 52.1719ZM103.105 52.1719C103.105 54.0156 102.959 55.6615 102.667 57.1094C102.386 58.5573 101.928 59.7865 101.292 60.7969C100.667 61.8073 99.8446 62.5781 98.8237 63.1094C97.8029 63.6406 96.5633 63.9062 95.105 63.9062C93.2716 63.9062 91.7664 63.4427 90.5894 62.5156C89.4123 61.5781 88.5425 60.2344 87.98 58.4844C87.4175 56.724 87.1362 54.6198 87.1362 52.1719C87.1362 49.7031 87.3914 47.5938 87.9019 45.8438C88.4227 44.0833 89.2664 42.7344 90.4331 41.7969C91.5998 40.8594 93.1571 40.3906 95.105 40.3906C96.9279 40.3906 98.4279 40.8594 99.605 41.7969C100.792 42.724 101.673 44.0677 102.246 45.8281C102.819 47.5781 103.105 49.6927 103.105 52.1719ZM91.9331 52.1719C91.9331 53.9115 92.0269 55.3646 92.2144 56.5312C92.4123 57.6875 92.7404 58.5573 93.1987 59.1406C93.6571 59.724 94.2925 60.0156 95.105 60.0156C95.9071 60.0156 96.5373 59.7292 96.9956 59.1562C97.4644 58.5729 97.7977 57.7031 97.9956 56.5469C98.1935 55.3802 98.2925 53.9219 98.2925 52.1719C98.2925 50.4323 98.1935 48.9792 97.9956 47.8125C97.7977 46.6458 97.4644 45.7708 96.9956 45.1875C96.5373 44.5938 95.9071 44.2969 95.105 44.2969C94.2925 44.2969 93.6571 44.5938 93.1987 45.1875C92.7404 45.7708 92.4123 46.6458 92.2144 47.8125C92.0269 48.9792 91.9331 50.4323 91.9331 52.1719Z" fill="#EBEBEB"/>
<path d="M27.8003 96.0293H26.4644V85.7793H22.8706V84.6074H31.3784V85.7793H27.8003V96.0293ZM40.2925 91.7324C40.2925 92.4355 40.2013 93.0632 40.019 93.6152C39.8368 94.1673 39.5737 94.6335 39.23 95.0137C38.8862 95.3939 38.4696 95.6855 37.98 95.8887C37.4956 96.0866 36.9461 96.1855 36.3315 96.1855C35.7586 96.1855 35.2326 96.0866 34.7534 95.8887C34.2795 95.6855 33.868 95.3939 33.519 95.0137C33.1753 94.6335 32.9071 94.1673 32.7144 93.6152C32.5269 93.0632 32.4331 92.4355 32.4331 91.7324C32.4331 90.7949 32.592 89.998 32.9097 89.3418C33.2274 88.6803 33.6805 88.1777 34.269 87.834C34.8628 87.485 35.5685 87.3105 36.3862 87.3105C37.1675 87.3105 37.8498 87.485 38.4331 87.834C39.0216 88.1829 39.4774 88.6882 39.8003 89.3496C40.1284 90.0059 40.2925 90.8001 40.2925 91.7324ZM33.7769 91.7324C33.7769 92.4199 33.868 93.0163 34.0503 93.5215C34.2326 94.0267 34.5138 94.4173 34.894 94.6934C35.2743 94.9694 35.7638 95.1074 36.3628 95.1074C36.9565 95.1074 37.4435 94.9694 37.8237 94.6934C38.2091 94.4173 38.493 94.0267 38.6753 93.5215C38.8576 93.0163 38.9487 92.4199 38.9487 91.7324C38.9487 91.0501 38.8576 90.4616 38.6753 89.9668C38.493 89.4668 38.2118 89.0814 37.8315 88.8105C37.4513 88.5397 36.9591 88.4043 36.355 88.4043C35.4644 88.4043 34.8107 88.6986 34.394 89.2871C33.9826 89.8757 33.7769 90.6908 33.7769 91.7324ZM45.3003 95.123C45.5138 95.123 45.7326 95.1048 45.9565 95.0684C46.1805 95.0319 46.3628 94.9876 46.5034 94.9355V95.9434C46.3524 96.0111 46.1414 96.0684 45.8706 96.1152C45.605 96.1621 45.3446 96.1855 45.0894 96.1855C44.6362 96.1855 44.2248 96.1074 43.855 95.9512C43.4852 95.7897 43.1883 95.5189 42.9644 95.1387C42.7456 94.7585 42.6362 94.2324 42.6362 93.5605V88.4824H41.4175V87.8496L42.644 87.3418L43.1597 85.4824H43.9409V87.4668H46.4487V88.4824H43.9409V93.5215C43.9409 94.0579 44.0633 94.459 44.3081 94.7246C44.5581 94.9902 44.8888 95.123 45.3003 95.123ZM51.4409 87.3262C52.4618 87.3262 53.2196 87.5553 53.7144 88.0137C54.2091 88.472 54.4565 89.2038 54.4565 90.209V96.0293H53.5112L53.2612 94.7637H53.1987C52.9591 95.0762 52.7091 95.3392 52.4487 95.5527C52.1883 95.7611 51.8862 95.9199 51.5425 96.0293C51.2039 96.1335 50.7873 96.1855 50.2925 96.1855C49.7716 96.1855 49.3081 96.0944 48.9019 95.9121C48.5008 95.7298 48.1831 95.4538 47.9487 95.084C47.7196 94.7142 47.605 94.2454 47.605 93.6777C47.605 92.8236 47.9435 92.1673 48.6206 91.709C49.2977 91.2507 50.3289 91.0007 51.7144 90.959L53.1909 90.8965V90.373C53.1909 89.6335 53.0321 89.1152 52.7144 88.8184C52.3966 88.5215 51.9487 88.373 51.3706 88.373C50.9227 88.373 50.4956 88.4382 50.0894 88.5684C49.6831 88.6986 49.2977 88.8522 48.9331 89.0293L48.5347 88.0449C48.9201 87.847 49.3628 87.6777 49.8628 87.5371C50.3628 87.3965 50.8888 87.3262 51.4409 87.3262ZM53.1753 91.8105L51.8706 91.8652C50.8029 91.9069 50.0503 92.0814 49.6128 92.3887C49.1753 92.696 48.9565 93.1309 48.9565 93.6934C48.9565 94.1829 49.105 94.5449 49.4019 94.7793C49.6987 95.0137 50.092 95.1309 50.5815 95.1309C51.342 95.1309 51.9644 94.9199 52.4487 94.498C52.9331 94.0762 53.1753 93.4434 53.1753 92.5996V91.8105ZM58.4331 96.0293H57.1284V83.873H58.4331V96.0293ZM65.5269 96.0293V84.6074H66.855V96.0293H65.5269ZM73.855 87.3105C74.8706 87.3105 75.6388 87.5605 76.1597 88.0605C76.6805 88.5553 76.9409 89.3522 76.9409 90.4512V96.0293H75.6597V90.5371C75.6597 89.8236 75.4956 89.2897 75.1675 88.9355C74.8446 88.5814 74.3472 88.4043 73.6753 88.4043C72.7274 88.4043 72.0607 88.6725 71.6753 89.209C71.2899 89.7454 71.0972 90.5241 71.0972 91.5449V96.0293H69.8003V87.4668H70.8472L71.0425 88.7012H71.1128C71.2951 88.3991 71.5269 88.1465 71.8081 87.9434C72.0894 87.735 72.4045 87.5788 72.7534 87.4746C73.1024 87.3652 73.4696 87.3105 73.855 87.3105ZM81.4956 96.0293L78.2456 87.4668H79.6362L81.519 92.6465C81.6493 93.0007 81.7821 93.3913 81.9175 93.8184C82.0529 94.2454 82.1466 94.5892 82.1987 94.8496H82.2534C82.3159 94.5892 82.4201 94.2454 82.5659 93.8184C82.7118 93.3861 82.8446 92.9954 82.9644 92.6465L84.8472 87.4668H86.2378L82.98 96.0293H81.4956ZM90.9097 87.3105C91.6388 87.3105 92.2638 87.472 92.7847 87.7949C93.3055 88.1178 93.7039 88.571 93.98 89.1543C94.256 89.7324 94.394 90.4095 94.394 91.1855V91.9902H88.48C88.4956 92.9954 88.7456 93.7611 89.23 94.2871C89.7144 94.8132 90.3966 95.0762 91.2769 95.0762C91.8185 95.0762 92.2977 95.0267 92.7144 94.9277C93.131 94.8288 93.5633 94.6829 94.0112 94.4902V95.6309C93.5789 95.8236 93.1493 95.9642 92.7222 96.0527C92.3003 96.1413 91.8003 96.1855 91.2222 96.1855C90.3993 96.1855 89.6805 96.0189 89.0659 95.6855C88.4565 95.347 87.9826 94.8522 87.644 94.2012C87.3055 93.5501 87.1362 92.7533 87.1362 91.8105C87.1362 90.8887 87.2899 90.0918 87.5972 89.4199C87.9097 88.7428 88.3472 88.222 88.9097 87.8574C89.4774 87.4928 90.144 87.3105 90.9097 87.3105ZM90.894 88.373C90.2013 88.373 89.6493 88.5996 89.2378 89.0527C88.8263 89.5059 88.5815 90.1387 88.5034 90.9512H93.0347C93.0295 90.4408 92.9487 89.9928 92.7925 89.6074C92.6414 89.2168 92.4097 88.9147 92.0972 88.7012C91.7847 88.4824 91.3836 88.373 90.894 88.373ZM102.136 93.6855C102.136 94.2324 101.998 94.6934 101.722 95.0684C101.451 95.4382 101.061 95.7168 100.55 95.9043C100.045 96.0918 99.4409 96.1855 98.7378 96.1855C98.1388 96.1855 97.6206 96.1387 97.1831 96.0449C96.7456 95.9512 96.3628 95.8184 96.0347 95.6465V94.4512C96.3836 94.623 96.8003 94.7793 97.2847 94.9199C97.769 95.0605 98.2638 95.1309 98.769 95.1309C99.5086 95.1309 100.045 95.0111 100.378 94.7715C100.712 94.5319 100.878 94.2064 100.878 93.7949C100.878 93.5605 100.811 93.3548 100.675 93.1777C100.545 92.9954 100.324 92.821 100.011 92.6543C99.6987 92.4824 99.2664 92.2949 98.7144 92.0918C98.1675 91.8835 97.6935 91.6777 97.2925 91.4746C96.8966 91.2663 96.5894 91.0137 96.3706 90.7168C96.1571 90.4199 96.0503 90.0345 96.0503 89.5605C96.0503 88.8366 96.342 88.2819 96.9253 87.8965C97.5138 87.5059 98.2847 87.3105 99.2378 87.3105C99.7534 87.3105 100.235 87.3626 100.683 87.4668C101.136 87.5658 101.558 87.7012 101.949 87.873L101.511 88.9121C101.157 88.7611 100.779 88.6335 100.378 88.5293C99.9774 88.4251 99.5685 88.373 99.1519 88.373C98.5529 88.373 98.092 88.472 97.769 88.6699C97.4513 88.8678 97.2925 89.1387 97.2925 89.4824C97.2925 89.748 97.3654 89.9668 97.5112 90.1387C97.6623 90.3105 97.9019 90.472 98.23 90.623C98.5581 90.7741 98.9904 90.9512 99.5269 91.1543C100.063 91.3522 100.527 91.5579 100.917 91.7715C101.308 91.9798 101.608 92.235 101.816 92.5371C102.029 92.834 102.136 93.2168 102.136 93.6855ZM106.988 95.123C107.201 95.123 107.42 95.1048 107.644 95.0684C107.868 95.0319 108.05 94.9876 108.191 94.9355V95.9434C108.04 96.0111 107.829 96.0684 107.558 96.1152C107.292 96.1621 107.032 96.1855 106.777 96.1855C106.324 96.1855 105.912 96.1074 105.542 95.9512C105.173 95.7897 104.876 95.5189 104.652 95.1387C104.433 94.7585 104.324 94.2324 104.324 93.5605V88.4824H103.105V87.8496L104.332 87.3418L104.847 85.4824H105.628V87.4668H108.136V88.4824H105.628V93.5215C105.628 94.0579 105.751 94.459 105.996 94.7246C106.246 94.9902 106.576 95.123 106.988 95.123ZM119.222 87.3105C120.165 87.3105 120.876 87.5579 121.355 88.0527C121.834 88.5423 122.074 89.3314 122.074 90.4199V96.0293H120.792V90.4824C120.792 89.7897 120.641 89.2715 120.339 88.9277C120.042 88.5788 119.6 88.4043 119.011 88.4043C118.183 88.4043 117.582 88.6439 117.207 89.123C116.832 89.6022 116.644 90.3079 116.644 91.2402V96.0293H115.355V90.4824C115.355 90.0189 115.287 89.6335 115.152 89.3262C115.022 89.0189 114.824 88.7897 114.558 88.6387C114.298 88.4824 113.967 88.4043 113.566 88.4043C112.998 88.4043 112.542 88.5215 112.199 88.7559C111.855 88.9902 111.605 89.3392 111.449 89.8027C111.298 90.2611 111.222 90.8262 111.222 91.498V96.0293H109.925V87.4668H110.972L111.167 88.6777H111.238C111.41 88.3809 111.626 88.1309 111.886 87.9277C112.147 87.7246 112.438 87.571 112.761 87.4668C113.084 87.3626 113.428 87.3105 113.792 87.3105C114.444 87.3105 114.988 87.4329 115.425 87.6777C115.868 87.9173 116.188 88.2845 116.386 88.7793H116.457C116.738 88.2845 117.123 87.9173 117.613 87.6777C118.102 87.4329 118.639 87.3105 119.222 87.3105ZM128.035 87.3105C128.764 87.3105 129.389 87.472 129.91 87.7949C130.431 88.1178 130.829 88.571 131.105 89.1543C131.381 89.7324 131.519 90.4095 131.519 91.1855V91.9902H125.605C125.621 92.9954 125.871 93.7611 126.355 94.2871C126.839 94.8132 127.522 95.0762 128.402 95.0762C128.944 95.0762 129.423 95.0267 129.839 94.9277C130.256 94.8288 130.688 94.6829 131.136 94.4902V95.6309C130.704 95.8236 130.274 95.9642 129.847 96.0527C129.425 96.1413 128.925 96.1855 128.347 96.1855C127.524 96.1855 126.806 96.0189 126.191 95.6855C125.582 95.347 125.108 94.8522 124.769 94.2012C124.431 93.5501 124.261 92.7533 124.261 91.8105C124.261 90.8887 124.415 90.0918 124.722 89.4199C125.035 88.7428 125.472 88.222 126.035 87.8574C126.602 87.4928 127.269 87.3105 128.035 87.3105ZM128.019 88.373C127.326 88.373 126.774 88.5996 126.363 89.0527C125.951 89.5059 125.707 90.1387 125.628 90.9512H130.16C130.154 90.4408 130.074 89.9928 129.917 89.6074C129.766 89.2168 129.535 88.9147 129.222 88.7012C128.91 88.4824 128.509 88.373 128.019 88.373ZM137.777 87.3105C138.792 87.3105 139.561 87.5605 140.082 88.0605C140.602 88.5553 140.863 89.3522 140.863 90.4512V96.0293H139.582V90.5371C139.582 89.8236 139.417 89.2897 139.089 88.9355C138.766 88.5814 138.269 88.4043 137.597 88.4043C136.649 88.4043 135.983 88.6725 135.597 89.209C135.212 89.7454 135.019 90.5241 135.019 91.5449V96.0293H133.722V87.4668H134.769L134.964 88.7012H135.035C135.217 88.3991 135.449 88.1465 135.73 87.9434C136.011 87.735 136.326 87.5788 136.675 87.4746C137.024 87.3652 137.391 87.3105 137.777 87.3105ZM146.3 95.123C146.514 95.123 146.733 95.1048 146.957 95.0684C147.181 95.0319 147.363 94.9876 147.503 94.9355V95.9434C147.352 96.0111 147.141 96.0684 146.871 96.1152C146.605 96.1621 146.345 96.1855 146.089 96.1855C145.636 96.1855 145.225 96.1074 144.855 95.9512C144.485 95.7897 144.188 95.5189 143.964 95.1387C143.746 94.7585 143.636 94.2324 143.636 93.5605V88.4824H142.417V87.8496L143.644 87.3418L144.16 85.4824H144.941V87.4668H147.449V88.4824H144.941V93.5215C144.941 94.0579 145.063 94.459 145.308 94.7246C145.558 94.9902 145.889 95.123 146.3 95.123Z" fill="#EBEBEB"/>
<path d="M33.3472 187.18C33.3472 188.466 33.1128 189.542 32.644 190.406C32.1753 191.266 31.4956 191.914 30.605 192.352C29.7196 192.784 28.644 193 27.3784 193H24.2769V181.578H27.7222C28.8836 181.578 29.8836 181.792 30.7222 182.219C31.5607 182.641 32.2065 183.268 32.6597 184.102C33.118 184.93 33.3472 185.956 33.3472 187.18ZM31.9487 187.227C31.9487 186.201 31.7769 185.354 31.4331 184.688C31.0946 184.021 30.5946 183.526 29.9331 183.203C29.2769 182.875 28.4722 182.711 27.519 182.711H25.605V191.859H27.2222C28.7951 191.859 29.9748 191.471 30.7612 190.695C31.5529 189.919 31.9487 188.763 31.9487 187.227ZM43.0737 188.703C43.0737 189.406 42.9826 190.034 42.8003 190.586C42.618 191.138 42.355 191.604 42.0112 191.984C41.6675 192.365 41.2508 192.656 40.7612 192.859C40.2769 193.057 39.7274 193.156 39.1128 193.156C38.5399 193.156 38.0138 193.057 37.5347 192.859C37.0607 192.656 36.6493 192.365 36.3003 191.984C35.9565 191.604 35.6883 191.138 35.4956 190.586C35.3081 190.034 35.2144 189.406 35.2144 188.703C35.2144 187.766 35.3732 186.969 35.6909 186.312C36.0086 185.651 36.4618 185.148 37.0503 184.805C37.644 184.456 38.3498 184.281 39.1675 184.281C39.9487 184.281 40.631 184.456 41.2144 184.805C41.8029 185.154 42.2586 185.659 42.5815 186.32C42.9097 186.977 43.0737 187.771 43.0737 188.703ZM36.5581 188.703C36.5581 189.391 36.6493 189.987 36.8315 190.492C37.0138 190.997 37.2951 191.388 37.6753 191.664C38.0555 191.94 38.5451 192.078 39.144 192.078C39.7378 192.078 40.2248 191.94 40.605 191.664C40.9904 191.388 41.2743 190.997 41.4565 190.492C41.6388 189.987 41.73 189.391 41.73 188.703C41.73 188.021 41.6388 187.432 41.4565 186.938C41.2743 186.438 40.993 186.052 40.6128 185.781C40.2326 185.51 39.7404 185.375 39.1362 185.375C38.2456 185.375 37.592 185.669 37.1753 186.258C36.7638 186.846 36.5581 187.661 36.5581 188.703ZM49.3706 184.281C50.3862 184.281 51.1545 184.531 51.6753 185.031C52.1961 185.526 52.4565 186.323 52.4565 187.422V193H51.1753V187.508C51.1753 186.794 51.0112 186.26 50.6831 185.906C50.3602 185.552 49.8628 185.375 49.1909 185.375C48.243 185.375 47.5763 185.643 47.1909 186.18C46.8055 186.716 46.6128 187.495 46.6128 188.516V193H45.3159V184.438H46.3628L46.5581 185.672H46.6284C46.8107 185.37 47.0425 185.117 47.3237 184.914C47.605 184.706 47.9201 184.549 48.269 184.445C48.618 184.336 48.9852 184.281 49.3706 184.281ZM58.3315 184.297C59.3524 184.297 60.1102 184.526 60.605 184.984C61.0998 185.443 61.3472 186.174 61.3472 187.18V193H60.4019L60.1519 191.734H60.0894C59.8498 192.047 59.5998 192.31 59.3394 192.523C59.0789 192.732 58.7769 192.891 58.4331 193C58.0946 193.104 57.6779 193.156 57.1831 193.156C56.6623 193.156 56.1987 193.065 55.7925 192.883C55.3914 192.701 55.0737 192.424 54.8394 192.055C54.6102 191.685 54.4956 191.216 54.4956 190.648C54.4956 189.794 54.8341 189.138 55.5112 188.68C56.1883 188.221 57.2196 187.971 58.605 187.93L60.0815 187.867V187.344C60.0815 186.604 59.9227 186.086 59.605 185.789C59.2873 185.492 58.8394 185.344 58.2612 185.344C57.8133 185.344 57.3862 185.409 56.98 185.539C56.5737 185.669 56.1883 185.823 55.8237 186L55.4253 185.016C55.8107 184.818 56.2534 184.648 56.7534 184.508C57.2534 184.367 57.7795 184.297 58.3315 184.297ZM60.0659 188.781L58.7612 188.836C57.6935 188.878 56.9409 189.052 56.5034 189.359C56.0659 189.667 55.8472 190.102 55.8472 190.664C55.8472 191.154 55.9956 191.516 56.2925 191.75C56.5894 191.984 56.9826 192.102 57.4722 192.102C58.2326 192.102 58.855 191.891 59.3394 191.469C59.8237 191.047 60.0659 190.414 60.0659 189.57V188.781ZM66.7847 192.094C66.9982 192.094 67.217 192.076 67.4409 192.039C67.6649 192.003 67.8472 191.958 67.9878 191.906V192.914C67.8368 192.982 67.6258 193.039 67.355 193.086C67.0894 193.133 66.8289 193.156 66.5737 193.156C66.1206 193.156 65.7091 193.078 65.3394 192.922C64.9696 192.76 64.6727 192.49 64.4487 192.109C64.23 191.729 64.1206 191.203 64.1206 190.531V185.453H62.9019V184.82L64.1284 184.312L64.644 182.453H65.4253V184.438H67.9331V185.453H65.4253V190.492C65.4253 191.029 65.5477 191.43 65.7925 191.695C66.0425 191.961 66.3732 192.094 66.7847 192.094ZM73.019 184.281C73.7482 184.281 74.3732 184.443 74.894 184.766C75.4149 185.089 75.8133 185.542 76.0894 186.125C76.3654 186.703 76.5034 187.38 76.5034 188.156V188.961H70.5894C70.605 189.966 70.855 190.732 71.3394 191.258C71.8237 191.784 72.506 192.047 73.3862 192.047C73.9279 192.047 74.4071 191.997 74.8237 191.898C75.2404 191.799 75.6727 191.654 76.1206 191.461V192.602C75.6883 192.794 75.2586 192.935 74.8315 193.023C74.4097 193.112 73.9097 193.156 73.3315 193.156C72.5086 193.156 71.7899 192.99 71.1753 192.656C70.5659 192.318 70.092 191.823 69.7534 191.172C69.4149 190.521 69.2456 189.724 69.2456 188.781C69.2456 187.859 69.3993 187.062 69.7065 186.391C70.019 185.714 70.4565 185.193 71.019 184.828C71.5868 184.464 72.2534 184.281 73.019 184.281ZM73.0034 185.344C72.3107 185.344 71.7586 185.57 71.3472 186.023C70.9357 186.477 70.6909 187.109 70.6128 187.922H75.144C75.1388 187.411 75.0581 186.964 74.9019 186.578C74.7508 186.188 74.519 185.885 74.2065 185.672C73.894 185.453 73.493 185.344 73.0034 185.344ZM86.5659 193H85.23V182.75H81.6362V181.578H90.144V182.75H86.5659V193ZM99.0581 188.703C99.0581 189.406 98.967 190.034 98.7847 190.586C98.6024 191.138 98.3394 191.604 97.9956 191.984C97.6519 192.365 97.2352 192.656 96.7456 192.859C96.2612 193.057 95.7118 193.156 95.0972 193.156C94.5243 193.156 93.9982 193.057 93.519 192.859C93.0451 192.656 92.6336 192.365 92.2847 191.984C91.9409 191.604 91.6727 191.138 91.48 190.586C91.2925 190.034 91.1987 189.406 91.1987 188.703C91.1987 187.766 91.3576 186.969 91.6753 186.312C91.993 185.651 92.4461 185.148 93.0347 184.805C93.6284 184.456 94.3341 184.281 95.1519 184.281C95.9331 184.281 96.6154 184.456 97.1987 184.805C97.7873 185.154 98.243 185.659 98.5659 186.32C98.894 186.977 99.0581 187.771 99.0581 188.703ZM92.5425 188.703C92.5425 189.391 92.6336 189.987 92.8159 190.492C92.9982 190.997 93.2795 191.388 93.6597 191.664C94.0399 191.94 94.5295 192.078 95.1284 192.078C95.7222 192.078 96.2091 191.94 96.5894 191.664C96.9748 191.388 97.2586 190.997 97.4409 190.492C97.6232 189.987 97.7144 189.391 97.7144 188.703C97.7144 188.021 97.6232 187.432 97.4409 186.938C97.2586 186.438 96.9774 186.052 96.5972 185.781C96.217 185.51 95.7248 185.375 95.1206 185.375C94.23 185.375 93.5763 185.669 93.1597 186.258C92.7482 186.846 92.5425 187.661 92.5425 188.703ZM114.292 181.578V188.969C114.292 189.776 114.128 190.495 113.8 191.125C113.477 191.755 112.988 192.253 112.332 192.617C111.675 192.977 110.852 193.156 109.863 193.156C108.451 193.156 107.376 192.773 106.636 192.008C105.902 191.242 105.535 190.219 105.535 188.938V181.578H106.871V188.977C106.871 189.945 107.126 190.693 107.636 191.219C108.152 191.745 108.92 192.008 109.941 192.008C110.639 192.008 111.209 191.883 111.652 191.633C112.1 191.378 112.431 191.023 112.644 190.57C112.863 190.112 112.972 189.583 112.972 188.984V181.578H114.292ZM121.183 184.281C122.199 184.281 122.967 184.531 123.488 185.031C124.009 185.526 124.269 186.323 124.269 187.422V193H122.988V187.508C122.988 186.794 122.824 186.26 122.496 185.906C122.173 185.552 121.675 185.375 121.003 185.375C120.056 185.375 119.389 185.643 119.003 186.18C118.618 186.716 118.425 187.495 118.425 188.516V193H117.128V184.438H118.175L118.371 185.672H118.441C118.623 185.37 118.855 185.117 119.136 184.914C119.417 184.706 119.733 184.549 120.082 184.445C120.431 184.336 120.798 184.281 121.183 184.281ZM128.246 193H126.941V180.844H128.246V193ZM138.371 188.703C138.371 189.406 138.279 190.034 138.097 190.586C137.915 191.138 137.652 191.604 137.308 191.984C136.964 192.365 136.548 192.656 136.058 192.859C135.574 193.057 135.024 193.156 134.41 193.156C133.837 193.156 133.311 193.057 132.832 192.859C132.358 192.656 131.946 192.365 131.597 191.984C131.253 191.604 130.985 191.138 130.792 190.586C130.605 190.034 130.511 189.406 130.511 188.703C130.511 187.766 130.67 186.969 130.988 186.312C131.306 185.651 131.759 185.148 132.347 184.805C132.941 184.456 133.647 184.281 134.464 184.281C135.246 184.281 135.928 184.456 136.511 184.805C137.1 185.154 137.556 185.659 137.878 186.32C138.207 186.977 138.371 187.771 138.371 188.703ZM131.855 188.703C131.855 189.391 131.946 189.987 132.128 190.492C132.311 190.997 132.592 191.388 132.972 191.664C133.352 191.94 133.842 192.078 134.441 192.078C135.035 192.078 135.522 191.94 135.902 191.664C136.287 191.388 136.571 190.997 136.753 190.492C136.936 189.987 137.027 189.391 137.027 188.703C137.027 188.021 136.936 187.432 136.753 186.938C136.571 186.438 136.29 186.052 135.91 185.781C135.529 185.51 135.037 185.375 134.433 185.375C133.542 185.375 132.889 185.669 132.472 186.258C132.061 186.846 131.855 187.661 131.855 188.703ZM144.042 193.156C143.272 193.156 142.592 192.997 142.003 192.68C141.415 192.362 140.957 191.878 140.628 191.227C140.3 190.576 140.136 189.755 140.136 188.766C140.136 187.729 140.308 186.883 140.652 186.227C141.001 185.565 141.48 185.076 142.089 184.758C142.699 184.44 143.391 184.281 144.167 184.281C144.595 184.281 145.006 184.326 145.402 184.414C145.803 184.497 146.131 184.604 146.386 184.734L145.996 185.82C145.735 185.716 145.433 185.622 145.089 185.539C144.751 185.456 144.433 185.414 144.136 185.414C143.542 185.414 143.048 185.542 142.652 185.797C142.261 186.052 141.967 186.427 141.769 186.922C141.576 187.417 141.48 188.026 141.48 188.75C141.48 189.443 141.574 190.034 141.761 190.523C141.954 191.013 142.238 191.388 142.613 191.648C142.993 191.904 143.467 192.031 144.035 192.031C144.488 192.031 144.897 191.984 145.261 191.891C145.626 191.792 145.957 191.677 146.253 191.547V192.703C145.967 192.849 145.647 192.961 145.292 193.039C144.944 193.117 144.527 193.156 144.042 193.156ZM149.574 180.844V187.156C149.574 187.365 149.566 187.62 149.55 187.922C149.535 188.219 149.522 188.482 149.511 188.711H149.566C149.675 188.576 149.834 188.375 150.042 188.109C150.256 187.844 150.436 187.63 150.582 187.469L153.425 184.438H154.949L151.503 188.094L155.199 193H153.636L150.613 188.945L149.574 189.898V193H148.285V180.844H149.574ZM163.957 187.305L166.996 181.578H168.425L164.621 188.57V193H163.292V188.633L159.48 181.578H160.933L163.957 187.305ZM177.183 188.703C177.183 189.406 177.092 190.034 176.91 190.586C176.727 191.138 176.464 191.604 176.121 191.984C175.777 192.365 175.36 192.656 174.871 192.859C174.386 193.057 173.837 193.156 173.222 193.156C172.649 193.156 172.123 193.057 171.644 192.859C171.17 192.656 170.759 192.365 170.41 191.984C170.066 191.604 169.798 191.138 169.605 190.586C169.417 190.034 169.324 189.406 169.324 188.703C169.324 187.766 169.483 186.969 169.8 186.312C170.118 185.651 170.571 185.148 171.16 184.805C171.753 184.456 172.459 184.281 173.277 184.281C174.058 184.281 174.74 184.456 175.324 184.805C175.912 185.154 176.368 185.659 176.691 186.32C177.019 186.977 177.183 187.771 177.183 188.703ZM170.667 188.703C170.667 189.391 170.759 189.987 170.941 190.492C171.123 190.997 171.404 191.388 171.785 191.664C172.165 191.94 172.654 192.078 173.253 192.078C173.847 192.078 174.334 191.94 174.714 191.664C175.1 191.388 175.384 190.997 175.566 190.492C175.748 189.987 175.839 189.391 175.839 188.703C175.839 188.021 175.748 187.432 175.566 186.938C175.384 186.438 175.102 186.052 174.722 185.781C174.342 185.51 173.85 185.375 173.246 185.375C172.355 185.375 171.701 185.669 171.285 186.258C170.873 186.846 170.667 187.661 170.667 188.703ZM186.496 184.438V193H185.433L185.246 191.797H185.175C184.998 192.094 184.769 192.344 184.488 192.547C184.207 192.75 183.889 192.901 183.535 193C183.186 193.104 182.813 193.156 182.417 193.156C181.74 193.156 181.173 193.047 180.714 192.828C180.256 192.609 179.91 192.271 179.675 191.812C179.446 191.354 179.332 190.766 179.332 190.047V184.438H180.644V189.953C180.644 190.667 180.806 191.201 181.128 191.555C181.451 191.904 181.944 192.078 182.605 192.078C183.24 192.078 183.746 191.958 184.121 191.719C184.501 191.479 184.774 191.128 184.941 190.664C185.108 190.195 185.191 189.622 185.191 188.945V184.438H186.496ZM193.128 184.281C193.3 184.281 193.48 184.292 193.667 184.312C193.855 184.328 194.022 184.352 194.167 184.383L194.003 185.586C193.863 185.549 193.707 185.521 193.535 185.5C193.363 185.479 193.201 185.469 193.05 185.469C192.707 185.469 192.381 185.539 192.074 185.68C191.772 185.815 191.506 186.013 191.277 186.273C191.048 186.529 190.868 186.839 190.738 187.203C190.608 187.562 190.542 187.964 190.542 188.406V193H189.238V184.438H190.316L190.457 186.016H190.511C190.688 185.698 190.902 185.409 191.152 185.148C191.402 184.883 191.691 184.672 192.019 184.516C192.352 184.359 192.722 184.281 193.128 184.281ZM200.136 181.578H203.371C204.798 181.578 205.871 181.792 206.589 182.219C207.308 182.646 207.667 183.372 207.667 184.398C207.667 184.841 207.582 185.24 207.41 185.594C207.243 185.943 206.998 186.232 206.675 186.461C206.352 186.69 205.954 186.849 205.48 186.938V187.016C205.98 187.094 206.423 187.237 206.808 187.445C207.194 187.654 207.496 187.945 207.714 188.32C207.933 188.695 208.042 189.172 208.042 189.75C208.042 190.453 207.878 191.047 207.55 191.531C207.227 192.016 206.769 192.383 206.175 192.633C205.582 192.878 204.878 193 204.066 193H200.136V181.578ZM201.464 186.477H203.652C204.647 186.477 205.334 186.312 205.714 185.984C206.1 185.656 206.292 185.177 206.292 184.547C206.292 183.896 206.063 183.427 205.605 183.141C205.152 182.854 204.428 182.711 203.433 182.711H201.464V186.477ZM201.464 187.594V191.867H203.839C204.855 191.867 205.574 191.669 205.996 191.273C206.417 190.872 206.628 190.333 206.628 189.656C206.628 189.224 206.532 188.854 206.339 188.547C206.152 188.24 205.845 188.005 205.417 187.844C204.996 187.677 204.431 187.594 203.722 187.594H201.464ZM213.488 184.297C214.509 184.297 215.266 184.526 215.761 184.984C216.256 185.443 216.503 186.174 216.503 187.18V193H215.558L215.308 191.734H215.246C215.006 192.047 214.756 192.31 214.496 192.523C214.235 192.732 213.933 192.891 213.589 193C213.251 193.104 212.834 193.156 212.339 193.156C211.819 193.156 211.355 193.065 210.949 192.883C210.548 192.701 210.23 192.424 209.996 192.055C209.766 191.685 209.652 191.216 209.652 190.648C209.652 189.794 209.99 189.138 210.667 188.68C211.345 188.221 212.376 187.971 213.761 187.93L215.238 187.867V187.344C215.238 186.604 215.079 186.086 214.761 185.789C214.444 185.492 213.996 185.344 213.417 185.344C212.97 185.344 212.542 185.409 212.136 185.539C211.73 185.669 211.345 185.823 210.98 186L210.582 185.016C210.967 184.818 211.41 184.648 211.91 184.508C212.41 184.367 212.936 184.297 213.488 184.297ZM215.222 188.781L213.917 188.836C212.85 188.878 212.097 189.052 211.66 189.359C211.222 189.667 211.003 190.102 211.003 190.664C211.003 191.154 211.152 191.516 211.449 191.75C211.746 191.984 212.139 192.102 212.628 192.102C213.389 192.102 214.011 191.891 214.496 191.469C214.98 191.047 215.222 190.414 215.222 189.57V188.781ZM222.222 193.156C221.139 193.156 220.279 192.786 219.644 192.047C219.014 191.307 218.699 190.208 218.699 188.75C218.699 187.276 219.022 186.164 219.667 185.414C220.313 184.659 221.173 184.281 222.246 184.281C222.699 184.281 223.095 184.341 223.433 184.461C223.772 184.581 224.063 184.742 224.308 184.945C224.553 185.143 224.759 185.37 224.925 185.625H225.019C224.998 185.464 224.977 185.242 224.957 184.961C224.936 184.68 224.925 184.451 224.925 184.273V180.844H226.222V193H225.175L224.98 191.781H224.925C224.764 192.036 224.558 192.268 224.308 192.477C224.063 192.685 223.769 192.852 223.425 192.977C223.087 193.096 222.686 193.156 222.222 193.156ZM222.425 192.078C223.342 192.078 223.99 191.818 224.371 191.297C224.751 190.776 224.941 190.003 224.941 188.977V188.742C224.941 187.654 224.759 186.818 224.394 186.234C224.035 185.651 223.378 185.359 222.425 185.359C221.628 185.359 221.032 185.667 220.636 186.281C220.24 186.891 220.042 187.724 220.042 188.781C220.042 189.833 220.238 190.646 220.628 191.219C221.024 191.792 221.623 192.078 222.425 192.078ZM231.363 196.844C230.238 196.844 229.371 196.633 228.761 196.211C228.152 195.794 227.847 195.208 227.847 194.453C227.847 193.917 228.016 193.458 228.355 193.078C228.699 192.698 229.173 192.445 229.777 192.32C229.553 192.216 229.36 192.06 229.199 191.852C229.042 191.643 228.964 191.404 228.964 191.133C228.964 190.82 229.05 190.547 229.222 190.312C229.399 190.073 229.667 189.844 230.027 189.625C229.579 189.443 229.214 189.135 228.933 188.703C228.657 188.266 228.519 187.758 228.519 187.18C228.519 186.565 228.647 186.042 228.902 185.609C229.157 185.172 229.527 184.839 230.011 184.609C230.496 184.38 231.082 184.266 231.769 184.266C231.92 184.266 232.071 184.273 232.222 184.289C232.378 184.299 232.527 184.318 232.667 184.344C232.808 184.365 232.931 184.391 233.035 184.422H235.972V185.258L234.394 185.453C234.55 185.656 234.681 185.901 234.785 186.188C234.889 186.474 234.941 186.792 234.941 187.141C234.941 187.995 234.652 188.674 234.074 189.18C233.496 189.68 232.701 189.93 231.691 189.93C231.451 189.93 231.207 189.909 230.957 189.867C230.701 190.008 230.506 190.164 230.371 190.336C230.24 190.508 230.175 190.706 230.175 190.93C230.175 191.096 230.225 191.229 230.324 191.328C230.428 191.427 230.576 191.5 230.769 191.547C230.962 191.589 231.194 191.609 231.464 191.609H232.972C233.904 191.609 234.618 191.805 235.113 192.195C235.613 192.586 235.863 193.156 235.863 193.906C235.863 194.854 235.477 195.581 234.707 196.086C233.936 196.591 232.821 196.844 231.363 196.844ZM231.402 195.828C232.11 195.828 232.696 195.755 233.16 195.609C233.628 195.469 233.977 195.263 234.207 194.992C234.441 194.727 234.558 194.409 234.558 194.039C234.558 193.695 234.48 193.435 234.324 193.258C234.167 193.086 233.938 192.971 233.636 192.914C233.334 192.852 232.964 192.82 232.527 192.82H231.042C230.657 192.82 230.321 192.88 230.035 193C229.748 193.12 229.527 193.297 229.371 193.531C229.22 193.766 229.144 194.057 229.144 194.406C229.144 194.87 229.339 195.221 229.73 195.461C230.121 195.706 230.678 195.828 231.402 195.828ZM231.738 188.984C232.358 188.984 232.824 188.828 233.136 188.516C233.449 188.203 233.605 187.747 233.605 187.148C233.605 186.508 233.446 186.029 233.128 185.711C232.811 185.388 232.342 185.227 231.722 185.227C231.128 185.227 230.67 185.393 230.347 185.727C230.029 186.055 229.871 186.536 229.871 187.172C229.871 187.755 230.032 188.203 230.355 188.516C230.678 188.828 231.139 188.984 231.738 188.984ZM240.957 184.281C241.686 184.281 242.311 184.443 242.832 184.766C243.352 185.089 243.751 185.542 244.027 186.125C244.303 186.703 244.441 187.38 244.441 188.156V188.961H238.527C238.542 189.966 238.792 190.732 239.277 191.258C239.761 191.784 240.444 192.047 241.324 192.047C241.865 192.047 242.345 191.997 242.761 191.898C243.178 191.799 243.61 191.654 244.058 191.461V192.602C243.626 192.794 243.196 192.935 242.769 193.023C242.347 193.112 241.847 193.156 241.269 193.156C240.446 193.156 239.727 192.99 239.113 192.656C238.503 192.318 238.029 191.823 237.691 191.172C237.352 190.521 237.183 189.724 237.183 188.781C237.183 187.859 237.337 187.062 237.644 186.391C237.957 185.714 238.394 185.193 238.957 184.828C239.524 184.464 240.191 184.281 240.957 184.281ZM240.941 185.344C240.248 185.344 239.696 185.57 239.285 186.023C238.873 186.477 238.628 187.109 238.55 187.922H243.082C243.076 187.411 242.996 186.964 242.839 186.578C242.688 186.188 242.457 185.885 242.144 185.672C241.832 185.453 241.431 185.344 240.941 185.344Z" fill="#EBEBEB"/>
<rect y="159.969" width="411.714" height="9.43512" fill="url(#paint3_linear_1788_16935)"/>
<path d="M304.117 192.564C304.843 190.363 309.558 187.802 312.178 186.826L316.27 194.063L327.207 196.476C325.845 196.476 314.247 201.874 309.226 204.517V196.393C306.731 194.599 304.117 192.564 304.117 192.564Z" fill="#9E9E9E"/>
<path d="M367.31 192.564C366.585 190.363 361.869 187.802 359.25 186.826L355.158 194.063L343.41 196.476C344.773 196.476 357.181 201.874 362.202 204.517V196.393C364.697 194.599 367.31 192.564 367.31 192.564Z" fill="#B4B4B4"/>
<path d="M322.346 190.848L327.207 196.477L316.27 194.064L322.346 190.848Z" fill="#232323"/>
<path d="M348.677 190.848L343.411 196.477L355.158 194.064L348.677 190.848Z" fill="#2C2C2C"/>
<path d="M335.375 120.084L348.355 135.161H322.395L335.375 120.084Z" fill="url(#paint4_linear_1788_16935)"/>
<path d="M335.376 206.125L322.396 191.048L348.356 191.048L335.376 206.125Z" fill="url(#paint5_linear_1788_16935)"/>
<g filter="url(#filter0_f_1788_16935)">
<path d="M335.376 124.105L336.88 128.644L341.452 130.136L336.88 131.629L335.376 136.167L333.872 131.629L329.3 130.136L333.872 128.644L335.376 124.105Z" fill="white"/>
<path d="M335.376 124.242L336.839 128.657L336.846 128.678L336.866 128.685L341.314 130.136L336.866 131.588L336.846 131.595L336.839 131.616L335.376 136.031L333.913 131.616L333.906 131.595L333.885 131.588L329.438 130.136L333.885 128.685L333.906 128.678L333.913 128.657L335.376 124.242Z" stroke="#696969" stroke-width="0.0857738"/>
</g>
<path d="M372.913 184.616L353.267 188.234L366.247 165.92L372.913 184.616Z" fill="url(#paint6_linear_1788_16935)"/>
<path d="M297.839 141.595L317.484 137.977L304.504 160.291L297.839 141.595Z" fill="url(#paint7_linear_1788_16935)"/>
<path d="M372.912 141.594L366.247 160.29L353.267 137.976L372.912 141.594Z" fill="url(#paint8_linear_1788_16935)"/>
<path d="M297.839 184.615L304.504 165.919L317.484 188.233L297.839 184.615Z" fill="url(#paint9_linear_1788_16935)"/>
<path d="M368.783 162.704C368.783 180.792 354.009 195.459 335.781 195.459C317.552 195.459 302.778 180.792 302.778 162.704C302.778 144.615 317.552 129.949 335.781 129.949C354.009 129.949 368.783 144.615 368.783 162.704Z" fill="url(#paint10_linear_1788_16935)" stroke="url(#paint11_linear_1788_16935)" stroke-width="0.428869"/>
<g filter="url(#filter1_i_1788_16935)">
<ellipse cx="335.78" cy="162.703" rx="29.1661" ry="28.9487" fill="url(#paint12_linear_1788_16935)"/>
</g>
<g filter="url(#filter2_ii_1788_16935)">
<ellipse cx="335.78" cy="162.702" rx="24.3051" ry="24.1239" fill="url(#paint13_linear_1788_16935)"/>
</g>
<g filter="url(#filter3_d_1788_16935)">
<path d="M321.428 158.583C320.996 157.422 322.295 156.381 323.335 157.055L342.783 169.677C343.858 170.375 343.364 172.043 342.083 172.043H327.332C326.795 172.043 326.314 171.709 326.127 171.205L321.428 158.583Z" fill="url(#paint14_linear_1788_16935)"/>
<path d="M350.129 158.568C350.566 157.409 349.274 156.363 348.231 157.031L328.501 169.673C327.419 170.366 327.91 172.043 329.195 172.043H344.159C344.695 172.043 345.174 171.711 345.363 171.21L350.129 158.568Z" fill="#787878"/>
<path d="M334.628 153.943C335.099 152.982 336.469 152.982 336.94 153.943L344.974 170.357C345.392 171.212 344.77 172.209 343.818 172.209H327.75C326.798 172.209 326.176 171.212 326.594 170.357L334.628 153.943Z" fill="url(#paint15_linear_1788_16935)"/>
<mask id="mask1_1788_16935" style="mask-type:alpha" maskUnits="userSpaceOnUse" x="326" y="153" width="20" height="20">
<path d="M334.628 153.943C335.099 152.982 336.469 152.982 336.94 153.943L344.974 170.357C345.392 171.212 344.77 172.209 343.818 172.209H327.75C326.798 172.209 326.176 171.212 326.594 170.357L334.628 153.943Z" fill="url(#paint16_linear_1788_16935)"/>
</mask>
<g mask="url(#mask1_1788_16935)">
<g filter="url(#filter4_f_1788_16935)">
<ellipse rx="10.5746" ry="2.86979" transform="matrix(0.204188 0.978932 -0.979534 0.201279 341.681 165.099)" fill="#FFF5D2" fill-opacity="0.8"/>
</g>
</g>
<ellipse cx="335.784" cy="150.073" rx="1.85856" ry="1.8447" fill="url(#paint17_linear_1788_16935)"/>
<ellipse cx="321.098" cy="155.439" rx="1.52064" ry="1.5093" fill="url(#paint18_linear_1788_16935)"/>
<ellipse cx="350.393" cy="155.439" rx="1.52064" ry="1.5093" fill="url(#paint19_linear_1788_16935)"/>
<rect x="326.364" y="173.664" width="18.4851" height="2.50191" rx="1.25095" fill="url(#paint20_linear_1788_16935)"/>
</g>
<path d="M322.817 141.795L323.419 143.61L325.248 144.207L323.419 144.804L322.817 146.62L322.216 144.804L320.387 144.207L322.216 143.61L322.817 141.795Z" fill="white"/>
<path d="M315.526 133.754L316.93 137.99L321.197 139.383L316.93 140.776L315.526 145.012L314.123 140.776L309.855 139.383L314.123 137.99L315.526 133.754Z" fill="white"/>
<g filter="url(#filter5_d_1788_16935)">
<path d="M309.788 183.794L316.27 194.064C333.688 184.817 350.297 191.652 355.158 194.064L361.639 183.794C359.786 181.669 352.019 177.372 335.779 177.183C319.538 176.995 311.685 181.512 309.788 183.794Z" fill="black"/>
</g>
<g filter="url(#filter6_d_1788_16935)">
<path d="M331.519 184.536C331.519 184.827 331.446 185.075 331.301 185.28C331.158 185.484 330.957 185.639 330.698 185.746C330.439 185.853 330.134 185.907 329.783 185.907C329.598 185.907 329.423 185.898 329.257 185.88C329.092 185.862 328.94 185.836 328.802 185.803C328.663 185.769 328.542 185.728 328.437 185.679V185.133C328.604 185.202 328.808 185.267 329.05 185.327C329.291 185.385 329.543 185.414 329.807 185.414C330.053 185.414 330.26 185.382 330.43 185.317C330.6 185.25 330.728 185.155 330.815 185.032C330.905 184.907 330.949 184.758 330.949 184.583C330.949 184.416 330.913 184.276 330.839 184.165C330.765 184.051 330.642 183.948 330.47 183.856C330.301 183.763 330.068 183.663 329.773 183.558C329.566 183.484 329.382 183.404 329.224 183.317C329.065 183.228 328.932 183.127 328.825 183.015C328.718 182.904 328.636 182.774 328.581 182.627C328.527 182.479 328.5 182.311 328.5 182.121C328.5 181.859 328.566 181.636 328.698 181.451C328.832 181.263 329.016 181.12 329.251 181.022C329.487 180.921 329.759 180.871 330.065 180.871C330.326 180.871 330.567 180.896 330.789 180.945C331.012 180.994 331.216 181.06 331.402 181.142L331.224 181.632C331.048 181.558 330.86 181.496 330.661 181.447C330.465 181.398 330.261 181.374 330.051 181.374C329.842 181.374 329.664 181.405 329.519 181.467C329.376 181.528 329.266 181.614 329.19 181.725C329.114 181.837 329.076 181.97 329.076 182.124C329.076 182.296 329.112 182.439 329.184 182.553C329.257 182.667 329.374 182.769 329.532 182.858C329.693 182.945 329.905 183.037 330.169 183.133C330.457 183.238 330.701 183.349 330.903 183.468C331.104 183.584 331.257 183.727 331.362 183.897C331.467 184.064 331.519 184.277 331.519 184.536ZM335.942 180.941L334.183 185.84H333.61L331.851 180.941H332.447L333.593 184.168C333.64 184.297 333.681 184.421 333.717 184.54C333.755 184.658 333.788 184.772 333.817 184.882C333.847 184.991 333.872 185.097 333.895 185.2C333.917 185.097 333.943 184.991 333.972 184.882C334.001 184.77 334.034 184.655 334.072 184.536C334.11 184.416 334.153 184.29 334.199 184.158L335.339 180.941H335.942ZM336.615 185.84V180.941H337.185V185.84H336.615ZM339.812 180.941C340.444 180.941 340.905 181.065 341.195 181.313C341.488 181.559 341.634 181.912 341.634 182.372C341.634 182.58 341.6 182.777 341.53 182.965C341.463 183.15 341.354 183.315 341.202 183.458C341.05 183.598 340.85 183.71 340.602 183.793C340.357 183.873 340.055 183.913 339.698 183.913H339.101V185.84H338.532V180.941H339.812ZM339.758 181.427H339.101V183.424H339.634C339.947 183.424 340.207 183.391 340.415 183.324C340.625 183.257 340.782 183.148 340.887 182.999C340.992 182.847 341.045 182.646 341.045 182.395C341.045 182.069 340.941 181.827 340.733 181.668C340.525 181.508 340.2 181.427 339.758 181.427Z" fill="white"/>
</g>
</g>
<defs>
<filter id="filter0_f_1788_16935" x="328.013" y="122.819" width="14.7258" height="14.6357" filterUnits="userSpaceOnUse" color-interpolation-filters="sRGB">
<feFlood flood-opacity="0" result="BackgroundImageFix"/>
<feBlend mode="normal" in="SourceGraphic" in2="BackgroundImageFix" result="shape"/>
<feGaussianBlur stdDeviation="0.643304" result="effect1_foregroundBlur_1788_16935"/>
</filter>
<filter id="filter1_i_1788_16935" x="306.614" y="132.896" width="58.3322" height="58.7542" filterUnits="userSpaceOnUse" color-interpolation-filters="sRGB">
<feFlood flood-opacity="0" result="BackgroundImageFix"/>
<feBlend mode="normal" in="SourceGraphic" in2="BackgroundImageFix" result="shape"/>
<feColorMatrix in="SourceAlpha" type="matrix" values="0 0 0 0 0 0 0 0 0 0 0 0 0 0 0 0 0 0 127 0" result="hardAlpha"/>
<feOffset dy="-0.857738"/>
<feGaussianBlur stdDeviation="0.428869"/>
<feComposite in2="hardAlpha" operator="arithmetic" k2="-1" k3="1"/>
<feColorMatrix type="matrix" values="0 0 0 0 0.616667 0 0 0 0 0.407 0 0 0 0 0 0 0 0 0.25 0"/>
<feBlend mode="normal" in2="shape" result="effect1_innerShadow_1788_16935"/>
</filter>
<filter id="filter2_ii_1788_16935" x="311.475" y="137.72" width="48.6101" height="49.9635" filterUnits="userSpaceOnUse" color-interpolation-filters="sRGB">
<feFlood flood-opacity="0" result="BackgroundImageFix"/>
<feBlend mode="normal" in="SourceGraphic" in2="BackgroundImageFix" result="shape"/>
<feColorMatrix in="SourceAlpha" type="matrix" values="0 0 0 0 0 0 0 0 0 0 0 0 0 0 0 0 0 0 127 0" result="hardAlpha"/>
<feOffset dy="0.857738"/>
<feGaussianBlur stdDeviation="0.857738"/>
<feComposite in2="hardAlpha" operator="arithmetic" k2="-1" k3="1"/>
<feColorMatrix type="matrix" values="0 0 0 0 0.7 0 0 0 0 0.465967 0 0 0 0 0.0116667 0 0 0 1 0"/>
<feBlend mode="normal" in2="shape" result="effect1_innerShadow_1788_16935"/>
<feColorMatrix in="SourceAlpha" type="matrix" values="0 0 0 0 0 0 0 0 0 0 0 0 0 0 0 0 0 0 127 0" result="hardAlpha"/>
<feOffset dy="-0.857738"/>
<feGaussianBlur stdDeviation="0.428869"/>
<feComposite in2="hardAlpha" operator="arithmetic" k2="-1" k3="1"/>
<feColorMatrix type="matrix" values="0 0 0 0 1 0 0 0 0 0.72 0 0 0 0 0 0 0 0 1 0"/>
<feBlend mode="normal" in2="effect1_innerShadow_1788_16935" result="effect2_innerShadow_1788_16935"/>
</filter>
<filter id="filter3_d_1788_16935" x="318.72" y="148.229" width="34.0517" height="29.653" filterUnits="userSpaceOnUse" color-interpolation-filters="sRGB">
<feFlood flood-opacity="0" result="BackgroundImageFix"/>
<feColorMatrix in="SourceAlpha" type="matrix" values="0 0 0 0 0 0 0 0 0 0 0 0 0 0 0 0 0 0 127 0" result="hardAlpha"/>
<feOffset dy="0.857738"/>
<feGaussianBlur stdDeviation="0.428869"/>
<feComposite in2="hardAlpha" operator="out"/>
<feColorMatrix type="matrix" values="0 0 0 0 0.358333 0 0 0 0 0.1935 0 0 0 0 0 0 0 0 1 0"/>
<feBlend mode="normal" in2="BackgroundImageFix" result="effect1_dropShadow_1788_16935"/>
<feBlend mode="normal" in="SourceGraphic" in2="effect1_dropShadow_1788_16935" result="shape"/>
</filter>
<filter id="filter4_f_1788_16935" x="335.563" y="152.157" width="12.236" height="25.8828" filterUnits="userSpaceOnUse" color-interpolation-filters="sRGB">
<feFlood flood-opacity="0" result="BackgroundImageFix"/>
<feBlend mode="normal" in="SourceGraphic" in2="BackgroundImageFix" result="shape"/>
<feGaussianBlur stdDeviation="1.28661" result="effect1_foregroundBlur_1788_16935"/>
</filter>
<filter id="filter5_d_1788_16935" x="301.211" y="172.889" width="69.0056" height="34.0415" filterUnits="userSpaceOnUse" color-interpolation-filters="sRGB">
<feFlood flood-opacity="0" result="BackgroundImageFix"/>
<feColorMatrix in="SourceAlpha" type="matrix" values="0 0 0 0 0 0 0 0 0 0 0 0 0 0 0 0 0 0 127 0" result="hardAlpha"/>
<feOffset dy="4.28869"/>
<feGaussianBlur stdDeviation="4.28869"/>
<feComposite in2="hardAlpha" operator="out"/>
<feColorMatrix type="matrix" values="0 0 0 0 0 0 0 0 0 0 0 0 0 0 0 0 0 0 0.3 0"/>
<feBlend mode="normal" in2="BackgroundImageFix" result="effect1_dropShadow_1788_16935"/>
<feBlend mode="normal" in="SourceGraphic" in2="effect1_dropShadow_1788_16935" result="shape"/>
</filter>
<filter id="filter6_d_1788_16935" x="328.437" y="180.871" width="13.1978" height="5.46403" filterUnits="userSpaceOnUse" color-interpolation-filters="sRGB">
<feFlood flood-opacity="0" result="BackgroundImageFix"/>
<feColorMatrix in="SourceAlpha" type="matrix" values="0 0 0 0 0 0 0 0 0 0 0 0 0 0 0 0 0 0 127 0" result="hardAlpha"/>
<feOffset dy="0.428869"/>
<feComposite in2="hardAlpha" operator="out"/>
<feColorMatrix type="matrix" values="0 0 0 0 0.221676 0 0 0 0 0.154219 0 0 0 0 0.5875 0 0 0 1 0"/>
<feBlend mode="normal" in2="BackgroundImageFix" result="effect1_dropShadow_1788_16935"/>
<feBlend mode="normal" in="SourceGraphic" in2="effect1_dropShadow_1788_16935" result="shape"/>
</filter>
<linearGradient id="paint0_linear_1788_16935" x1="205.857" y1="0" x2="205.857" y2="240.167" gradientUnits="userSpaceOnUse">
<stop stop-color="#484848"/>
<stop offset="1" stop-color="#1E1E1E"/>
</linearGradient>
<linearGradient id="paint1_linear_1788_16935" x1="292.06" y1="114.079" x2="168.546" y2="240.167" gradientUnits="userSpaceOnUse">
<stop stop-color="#313131"/>
<stop offset="1" stop-color="#313131" stop-opacity="0"/>
</linearGradient>
<linearGradient id="paint2_linear_1788_16935" x1="119.655" y1="126.087" x2="400.135" y2="242.31" gradientUnits="userSpaceOnUse">
<stop stop-color="#1B1B1B"/>
<stop offset="1" stop-color="#313131" stop-opacity="0"/>
</linearGradient>
<linearGradient id="paint3_linear_1788_16935" x1="-4.73876e-07" y1="164.686" x2="411.714" y2="164.686" gradientUnits="userSpaceOnUse">
<stop stop-color="#494949"/>
<stop offset="1" stop-color="white"/>
</linearGradient>
<linearGradient id="paint4_linear_1788_16935" x1="329.979" y1="126.115" x2="340.771" y2="126.115" gradientUnits="userSpaceOnUse">
<stop offset="0.484631" stop-color="#ADAEB1"/>
<stop offset="0.488859" stop-color="#FFC700"/>
<stop offset="0.557292" stop-color="#524F58"/>
</linearGradient>
<linearGradient id="paint5_linear_1788_16935" x1="340.772" y1="200.094" x2="329.98" y2="200.094" gradientUnits="userSpaceOnUse">
<stop offset="0.484631" stop-color="#ADAEB1"/>
<stop offset="0.488859" stop-color="#FFC700"/>
<stop offset="0.557292" stop-color="#524F58"/>
</linearGradient>
<linearGradient id="paint6_linear_1788_16935" x1="370.349" y1="176.962" x2="365.013" y2="186.273" gradientUnits="userSpaceOnUse">
<stop offset="0.484631" stop-color="#ADAEB1"/>
<stop offset="0.488859" stop-color="#FFC700"/>
<stop offset="0.557292" stop-color="#524F58"/>
</linearGradient>
<linearGradient id="paint7_linear_1788_16935" x1="300.403" y1="149.249" x2="305.738" y2="139.938" gradientUnits="userSpaceOnUse">
<stop offset="0.484631" stop-color="#ADAEB1"/>
<stop offset="0.488859" stop-color="#FFC700"/>
<stop offset="0.557292" stop-color="#524F58"/>
</linearGradient>
<linearGradient id="paint8_linear_1788_16935" x1="364.952" y1="139.972" x2="370.288" y2="149.282" gradientUnits="userSpaceOnUse">
<stop offset="0.484631" stop-color="#ADAEB1"/>
<stop offset="0.488859" stop-color="#FFC700"/>
<stop offset="0.557292" stop-color="#524F58"/>
</linearGradient>
<linearGradient id="paint9_linear_1788_16935" x1="305.799" y1="186.237" x2="300.464" y2="176.927" gradientUnits="userSpaceOnUse">
<stop offset="0.484631" stop-color="#ADAEB1"/>
<stop offset="0.488859" stop-color="#FFC700"/>
<stop offset="0.557292" stop-color="#524F58"/>
</linearGradient>
<linearGradient id="paint10_linear_1788_16935" x1="314.488" y1="138.188" x2="358.41" y2="187.546" gradientUnits="userSpaceOnUse">
<stop stop-color="#333333"/>
<stop offset="0.237301" stop-color="#9C9C9C"/>
<stop offset="1" stop-color="#BBBBBB"/>
</linearGradient>
<linearGradient id="paint11_linear_1788_16935" x1="335.781" y1="129.734" x2="335.781" y2="195.673" gradientUnits="userSpaceOnUse">
<stop stop-color="white" stop-opacity="0.5"/>
<stop offset="1" stop-color="white" stop-opacity="0"/>
</linearGradient>
<linearGradient id="paint12_linear_1788_16935" x1="317.147" y1="140.589" x2="354.084" y2="185.49" gradientUnits="userSpaceOnUse">
<stop stop-color="#353535"/>
<stop offset="1" stop-color="#918778"/>
</linearGradient>
<linearGradient id="paint13_linear_1788_16935" x1="319.696" y1="142.835" x2="339.465" y2="186.937" gradientUnits="userSpaceOnUse">
<stop stop-color="#8B8B8B"/>
<stop offset="0.484375" stop-color="#D8D8D8"/>
<stop offset="0.932292" stop-color="#969696"/>
<stop offset="1" stop-color="#743110"/>
<stop offset="1" stop-color="#3C3C3C"/>
</linearGradient>
<linearGradient id="paint14_linear_1788_16935" x1="321.67" y1="159.801" x2="331.483" y2="166.991" gradientUnits="userSpaceOnUse">
<stop stop-color="#747474"/>
<stop offset="1" stop-color="#E0E0E0"/>
</linearGradient>
<linearGradient id="paint15_linear_1788_16935" x1="330.619" y1="162.2" x2="341.097" y2="162.2" gradientUnits="userSpaceOnUse">
<stop offset="0.49738" stop-color="#2B2B2B"/>
<stop offset="0.49738" stop-color="#FFCC1D"/>
<stop offset="0.49748" stop-color="#A5A5A5"/>
<stop offset="0.598958" stop-color="#E1E1E1"/>
</linearGradient>
<linearGradient id="paint16_linear_1788_16935" x1="330.619" y1="162.2" x2="341.097" y2="162.2" gradientUnits="userSpaceOnUse">
<stop offset="0.49738" stop-color="#FCE77B"/>
<stop offset="0.49738" stop-color="#FFCC1D"/>
</linearGradient>
<linearGradient id="paint17_linear_1788_16935" x1="335.784" y1="148.229" x2="335.784" y2="151.918" gradientUnits="userSpaceOnUse">
<stop stop-color="#6F6F6F"/>
<stop offset="0.947917" stop-color="#988F85"/>
<stop offset="1" stop-color="#464645"/>
</linearGradient>
<linearGradient id="paint18_linear_1788_16935" x1="321.098" y1="153.93" x2="321.098" y2="156.948" gradientUnits="userSpaceOnUse">
<stop stop-color="#6F6F6F"/>
<stop offset="0.947917" stop-color="#988F85"/>
<stop offset="1" stop-color="#464645"/>
</linearGradient>
<linearGradient id="paint19_linear_1788_16935" x1="350.393" y1="153.93" x2="350.393" y2="156.948" gradientUnits="userSpaceOnUse">
<stop stop-color="#6F6F6F"/>
<stop offset="0.947917" stop-color="#988F85"/>
<stop offset="1" stop-color="#464645"/>
</linearGradient>
<linearGradient id="paint20_linear_1788_16935" x1="326.574" y1="174.915" x2="345.059" y2="174.915" gradientUnits="userSpaceOnUse">
<stop stop-color="#949494"/>
<stop offset="1" stop-color="#FDE07C" stop-opacity="0"/>
</linearGradient>
<clipPath id="clip0_1788_16935">
<rect width="411.714" height="240.167" rx="8" fill="white"/>
</clipPath>
</defs>
</svg>
